<svg xmlns="http://www.w3.org/2000/svg" xmlns:xlink="http://www.w3.org/1999/xlink" viewBox="0 0 158 158"><defs><path id="a" d="M.4.4h157.5v157.4H.4z"/><path d="M.4 79.1a78.7 78.7 0 10157.5 0 78.7 78.7 0 00-157.5 0" id="c"/><path d="M.4 79.1a78.7 78.7 0 10157.5 0 78.7 78.7 0 00-157.5 0" id="e"/><path d="M.4 79.1a78.7 78.7 0 10157.5 0 78.7 78.7 0 00-157.5 0" id="g"/><path d="M.4 79.1a78.7 78.7 0 10157.5 0 78.7 78.7 0 00-157.5 0z" id="i"/><path d="M.4 79.1a78.7 78.7 0 10157.5 0 78.7 78.7 0 00-157.5 0" id="k"/><path d="M.4 79.1a78.7 78.7 0 10157.5 0 78.7 78.7 0 00-157.5 0" id="m"/><path d="M.4 79.1a78.7 78.7 0 10157.5 0 78.7 78.7 0 00-157.5 0" id="o"/><path d="M.4 79.1a78.7 78.7 0 10157.5 0 78.7 78.7 0 00-157.5 0" id="q"/><path d="M.4 79.1a78.7 78.7 0 10157.5 0 78.7 78.7 0 00-157.5 0" id="s"/><path d="M.4 79.1a78.7 78.7 0 10157.5 0 78.7 78.7 0 00-157.5 0" id="u"/><path d="M.4 79.1a78.7 78.7 0 10157.5 0 78.7 78.7 0 00-157.5 0" id="w"/><path d="M.4 79.1a78.7 78.7 0 10157.5 0 78.7 78.7 0 00-157.5 0z" id="y"/><path d="M.4 79.1a78.7 78.7 0 10157.5 0 78.7 78.7 0 00-157.5 0" id="A"/><path d="M.4 79.1a78.7 78.7 0 10157.5 0 78.7 78.7 0 00-157.5 0" id="C"/><path d="M.4 79.1a78.7 78.7 0 10157.5 0 78.7 78.7 0 00-157.5 0" id="E"/></defs><g fill="none" fill-rule="evenodd"><g transform="translate(0 .1)"><mask id="b" fill="#fff"><use xlink:href="#a"/></mask><path d="M158 79.1a78.7 78.7 0 11-157.6 0 78.7 78.7 0 01157.5 0" fill="#F8F8F9" mask="url(#b)"/></g><g transform="translate(0 .1)"><mask id="d" fill="#fff"><use xlink:href="#c"/></mask><path d="M74.3 109.4h11.4c3.6 0 6.5 3 6.5 6.5v22c0 3.7-2.9 6.6-6.5 6.6H74.3c-3.6 0-6.5-3-6.5-6.6v-22c0-3.6 3-6.5 6.5-6.5" fill="#F7AC82" mask="url(#d)"/></g><g transform="translate(0 .1)"><mask id="f" fill="#fff"><use xlink:href="#e"/></mask><path d="M103.6 168H56.4C49 168 43 162 43 154.6v-20.2c0-7.4 6-13.4 13.4-13.4h47.2c7.4 0 13.5 6 13.5 13.4v20.2c0 7.4-6 13.4-13.5 13.4" fill="#7B53A2" mask="url(#f)"/></g><g transform="translate(0 .1)"><mask id="h" fill="#fff"><use xlink:href="#g"/></mask><path d="M74.5 109.4h11.3c3.6 0 6.6 3 6.6 6.5v22c0 3.7-3 6.6-6.6 6.6H74.5c-3.7 0-6.6-3-6.6-6.6v-22c0-3.6 3-6.5 6.6-6.5" fill="#F7AC82" mask="url(#h)"/></g><g transform="translate(0 .1)"><mask id="j" fill="#fff"><use xlink:href="#i"/></mask><path d="M54.3 31.8s-20.8 4.8-30 52.2H30s.3 41.1 3.5 43.6c0 0-16.2 11.3-14.4 16.2 1.8 4.9 12.6 9.8 14.4 8 1.8-1.7 3.1-22.4 3.1-22.4s-2-3.2 13.8-9.5c15.8-6.4 58.7 1 58.7 1l12.7 6.7s-1.8 24.3 1.7 24.6c3.5.4 13.4-6.7 12.7-10.9-.7-4.2-11-14.4-11-14.4s2.9-42.9.4-47.8c0 0 7 2.8 8.8 1.7 0 0 .7-75.5-81.6-52l1.5 3z" fill="#EFBB37" mask="url(#j)"/></g><g transform="translate(0 .1)"><mask id="l" fill="#fff"><use xlink:href="#k"/></mask><path d="M48.7 95.2a9.8 9.8 0 11-19.7 0 9.8 9.8 0 0119.7 0" fill="#F7AC82" mask="url(#l)"/></g><g transform="translate(0 .1)"><mask id="n" fill="#fff"><use xlink:href="#m"/></mask><path d="M130.3 95.2a9.8 9.8 0 11-19.6 0 9.8 9.8 0 0119.6 0" fill="#F7AC82" mask="url(#n)"/></g><g transform="translate(0 .1)"><mask id="p" fill="#fff"><use xlink:href="#o"/></mask><path d="M124.9 83.9a44.8 44.8 0 11-89.7 0 44.8 44.8 0 0189.7 0" fill="#FBCBA9" mask="url(#p)"/></g><g transform="translate(0 .1)"><mask id="r" fill="#fff"><use xlink:href="#q"/></mask><path d="M63.5 87.5a6.4 6.4 0 11-13 0 6.4 6.4 0 0113 0" fill="#010202" mask="url(#r)"/></g><g transform="translate(0 .1)"><mask id="t" fill="#fff"><use xlink:href="#s"/></mask><path d="M109.4 87.5a6.4 6.4 0 11-12.9 0 6.4 6.4 0 0113 0" fill="#010202" mask="url(#t)"/></g><g transform="translate(0 .1)"><mask id="v" fill="#fff"><use xlink:href="#u"/></mask><path d="M80 97.3a6 6 0 01-6-6h12a6 6 0 01-6 6" fill="#F7AC82" mask="url(#v)"/></g><g transform="translate(0 .1)"><mask id="x" fill="#fff"><use xlink:href="#w"/></mask><path d="M69.8 104.4h20.4S87.6 115 80 115s-10.2-10.6-10.2-10.6" fill="#CA583C" mask="url(#x)"/></g><g transform="translate(0 .1)"><mask id="z" fill="#fff"><use xlink:href="#y"/></mask><path d="M35 85.2S49.7 90 64.5 44.5v-15l-14.8 11L29 78.9l6 6.4z" fill="#EFBB37" mask="url(#z)"/></g><g transform="translate(0 .1)"><mask id="B" fill="#fff"><use xlink:href="#A"/></mask><path d="M53.3 29.4s9.4 47 84 52.7c0 0-5.4-78.4-84-52.7" fill="#EFBB37" mask="url(#B)"/></g><g transform="translate(0 .1)"><mask id="D" fill="#fff"><use xlink:href="#C"/></mask><path d="M36.4 129.2l-3.3-1a.7.7 0 01-.4-1l.3-1c.1-.4.5-.6 1-.5l3.1 1c.4.2.6.6.5 1l-.3 1c-.1.4-.5.6-1 .5" fill="#7B53A2" mask="url(#D)"/></g><g transform="translate(0 .1)"><mask id="F" fill="#fff"><use xlink:href="#E"/></mask><path d="M122.3 129.2l3.2-1c.4-.1.6-.5.5-1l-.3-1a.7.7 0 00-1-.4l-3.2 1c-.3.1-.6.5-.4 1l.3 1c.1.3.5.6 1 .4" fill="#7B53A2" mask="url(#F)"/></g><g fill="#EFBB37"><path d="M33 128.6S10.7 141 22 148.3c11.3 7.2 12 5.3 12.8-1.4.9-6.7 2.4-16.9 1.1-17-1.3-.2-2.8-1.3-2.8-1.3M125.6 128.4s21.2 14.4 9.3 20.6c-12 6.1-13.3 4.4-13.5-2.3-.2-6.8 0-17.3 1.2-17.3 1.3 0 3-1 3-1"/></g></g></svg>